<?xml version="1.0" encoding="iso-8859-1"?>
<!-- Uploaded to: SVG Repo, www.svgrepo.com, Generator: SVG Repo Mixer Tools -->
<!DOCTYPE svg PUBLIC "-//W3C//DTD SVG 1.1//EN" "http://www.w3.org/Graphics/SVG/1.1/DTD/svg11.dtd">
<svg fill="#000000" version="1.1" id="Capa_1" xmlns="http://www.w3.org/2000/svg" xmlns:xlink="http://www.w3.org/1999/xlink" 
	 width="800px" height="800px" viewBox="0 0 411.125 411.125"
	 xml:space="preserve">
<g>
	<g>
		<g>
			<path d="M379.259,32.086C377.109,30.779,325.366,0,205.562,0C85.762,0,34.011,30.78,31.869,32.087
				c-6.827,4.169-10.844,11.717-10.504,19.705c0.102,2.353,2.728,58.546,24.755,130.149c12.981,42.198,30.06,81.071,50.768,115.575
				c26.152,43.568,58.177,80.236,95.195,108.984c3.963,3.082,8.717,4.625,13.48,4.625c4.767,0,9.519-1.541,13.48-4.625
				c37.016-28.748,69.043-65.416,95.191-108.984c20.706-34.504,37.789-73.377,50.771-115.575
				c22.028-71.603,24.655-127.796,24.755-130.149C390.101,43.804,386.08,36.255,379.259,32.086z M287.187,138.714l-97.177,97.16
				c-2.807,2.831-6.546,4.375-10.511,4.375c-3.977,0-7.714-1.544-10.54-4.375l-45.018-45.104c-5.795-5.802-5.795-15.229,0-21.031
				l8.669-8.671c2.821-2.79,6.56-4.334,10.53-4.334c3.969,0,7.689,1.531,10.492,4.334l25.86,25.774l77.907-77.909
				c2.814-2.823,6.544-4.375,10.523-4.375c3.977,0,7.709,1.552,10.509,4.375l8.752,8.746
				C292.979,123.478,292.979,132.912,287.187,138.714z"/>
		</g>
	</g>
</g>
</svg>